Coordinates
version=1
nRows=23
nColumns=30
inDegrees=yes

Units are S.I. units (second, meters, Newtons, ...)
Angles are in degrees.

endheader
time	floatyaw	floatroll	floatpitch	floatx	floaty	floatz	pro_sup_l	deviation_l	flexion_l	cmc_flexion_l	cmc_abduction_l	mp_flexion_l	ip_flexion_l	2mcp_flexion_l	2mcp_abduction_l	2pm_flexion_l	2md_flexion_l	3mcp_flexion_l	3mcp_abduction_l	3pm_flexion_l	3md_flexion_l	4mcp_flexion_l	4mcp_abduction_l	4pm_flexion_l	4md_flexion_l	5mcp_flexion_l	5mcp_abduction_l	5pm_flexion_l	5md_flexion_l
-0.995000	-3.995636	-4.876138	96.430707	-0.104357	-0.181992	-0.037880	86.053360	0.240380	-2.864849	15.660683	3.592305	-21.915254	-34.263446	37.938699	9.939991	48.003171	34.543907	21.443640	5.036367	47.123605	33.274031	9.440007	-4.951197	62.128689	43.129680	0.954294	-8.944477	62.724661	43.810479
-0.985000	-3.995636	-4.876138	96.430707	-0.104115	-0.182014	-0.037769	86.049350	0.231339	-2.831445	15.596776	3.595318	-21.932141	-34.279772	38.015707	9.923913	48.133362	34.606832	21.530145	5.037818	47.211336	33.329796	9.544737	-4.962456	62.201562	43.178815	1.067445	-8.901072	62.831330	43.847581
-0.975000	-3.995636	-4.876138	96.430707	-0.103879	-0.182070	-0.037660	86.035184	0.214901	-2.824219	15.552993	3.591276	-21.950048	-34.315609	38.100050	9.908769	48.322291	34.699572	21.648275	5.039333	47.324760	33.402630	9.686452	-4.974155	62.309501	43.245344	1.217820	-8.853863	62.970819	43.889662
-0.965000	-3.995636	-4.876138	96.430707	-0.103643	-0.182150	-0.037554	86.005465	0.195036	-2.841472	15.538819	3.580810	-21.976542	-34.381666	38.176374	9.900782	48.555021	34.817794	21.791350	5.038658	47.457228	33.490649	9.852146	-4.985125	62.454425	43.331102	1.397137	-8.810268	63.150086	43.937667
-0.955000	-3.995636	-4.876138	96.430707	-0.103405	-0.182231	-0.037455	85.959186	0.179192	-2.873447	15.554619	3.568540	-22.016338	-34.478944	38.230403	9.905152	48.800946	34.949095	21.944142	5.033476	47.598202	33.587947	10.020896	-4.993999	62.628518	43.432579	1.589933	-8.777915	63.362536	43.990180
-0.945000	-3.995636	-4.876138	96.430707	-0.103166	-0.182289	-0.037364	85.899974	0.175565	-2.907790	15.589664	3.561168	-22.069282	-34.596948	38.255282	9.922676	49.023401	35.076121	22.087904	5.022617	47.735018	33.685003	10.170988	-4.999703	62.814435	43.540712	1.777470	-8.761435	63.587067	44.043253
-0.935000	-3.995636	-4.876138	96.430707	-0.102927	-0.182306	-0.037282	85.834001	0.189955	-2.936060	15.625672	3.562846	-22.130267	-34.717202	38.255465	9.948456	49.192183	35.182161	22.207784	5.006880	47.855209	33.771081	10.288491	-5.001990	62.989809	43.643488	1.942769	-8.759943	63.795541	44.091999
-0.925000	-3.995636	-4.876138	96.430707	-0.102687	-0.182276	-0.037203	85.767033	0.223769	-2.957473	15.644490	3.571783	-22.190794	-34.820189	38.245185	9.973682	49.293214	35.256645	22.298404	4.988999	47.948966	33.837586	10.372728	-5.001634	63.133955	43.729759	2.075051	-8.766947	63.963896	44.132547
-0.915000	-3.995636	-4.876138	96.430707	-0.102443	-0.182205	-0.037122	85.702420	0.274005	-2.977912	15.635570	3.581377	-22.241584	-34.892145	38.241730	9.989431	49.331178	35.297946	22.364487	4.972817	48.010938	33.880486	10.435489	-5.000075	63.233380	43.792177	2.172354	-8.773310	64.079828	44.162763
-0.905000	-3.995636	-4.876138	96.430707	-0.102186	-0.182105	-0.037035	85.641046	0.335008	-3.005337	15.599141	3.585435	-22.275618	-34.928888	38.256882	9.990406	49.324901	35.312471	22.416572	4.962086	48.041014	33.900780	10.494563	-4.998811	63.284182	43.828314	2.241633	-8.771863	64.143672	44.181728
-0.895000	-3.995636	-4.876138	96.430707	-0.101910	-0.181990	-0.036937	85.583029	0.400904	-3.044703	15.544114	3.583575	-22.290703	-34.935778	38.290991	9.976889	49.298740	35.311029	22.464571	4.959333	48.044268	33.903361	10.565237	-4.999016	63.291769	43.840403	2.296105	-8.760993	64.164654	44.189254
-0.885000	-3.995636	-4.876138	96.430707	-0.101613	-0.181868	-0.036828	85.529949	0.467518	-3.095118	15.482734	3.582640	-22.290262	-34.924391	38.332848	9.954284	49.274144	35.304456	22.512833	4.965134	48.030061	33.895235	10.654049	-5.001591	63.269183	43.834463	2.350332	-8.744876	64.156559	44.186386
-0.875000	-3.995636	-4.876138	96.430707	-0.101293	-0.181740	-0.036706	85.486195	0.533033	-3.150211	15.425158	3.593120	-22.281656	-34.907547	38.365772	9.930590	49.263966	35.300210	22.559169	4.977972	48.009781	33.883583	10.757273	-5.007369	63.234225	43.818988	2.414605	-8.730034	64.134647	44.176281
-0.865000	-3.995636	-4.876138	96.430707	-0.100953	-0.181606	-0.036575	85.458297	0.597337	-3.200985	15.376339	3.623263	-22.272826	-34.894834	38.377005	9.912894	49.270284	35.300818	22.597902	4.994643	47.993163	33.873884	10.863889	-5.017049	63.204658	43.802960	2.490722	-8.720320	64.113056	44.164130
-0.855000	-3.995636	-4.876138	96.430707	-0.100597	-0.181465	-0.036434	85.452092	0.660533	-3.239391	15.335811	3.674658	-22.269192	-34.890466	38.365282	9.904457	49.285647	35.304344	22.624695	5.011035	47.984647	33.868557	10.960673	-5.030675	63.192121	43.793402	2.570858	-8.713618	64.102226	44.155678
-0.845000	-3.995636	-4.876138	96.430707	-0.100231	-0.181320	-0.036289	85.468968	0.721531	-3.260854	15.299502	3.741482	-22.272418	-34.893969	38.342025	9.903886	49.297553	35.306497	22.640089	5.023143	47.982281	33.866887	11.036881	-5.047016	63.197884	43.793540	2.640385	-8.702694	64.107712	44.155339
-0.835000	-3.995636	-4.876138	96.430707	-0.099865	-0.181181	-0.036145	85.503518	0.777599	-3.264974	15.262166	3.813259	-22.281209	-34.902601	38.325255	9.906777	49.295439	35.303752	22.650015	5.028199	47.980776	33.866667	11.087614	-5.063599	63.214102	43.802766	2.684580	-8.679865	64.131874	44.165198
-0.825000	-3.995636	-4.876138	96.430707	-0.099510	-0.181062	-0.036007	85.544542	0.825287	-3.254878	15.219466	3.879282	-22.293139	-34.913828	38.329930	9.908705	49.278147	35.296471	22.663749	5.025635	47.977606	33.866939	11.116043	-5.077730	63.230930	43.818599	2.697193	-8.642338	64.177413	44.185238
-0.815000	-3.995636	-4.876138	96.430707	-0.099176	-0.180981	-0.035879	85.579434	0.862341	-3.236285	15.169434	3.932185	-22.306501	-34.926897	38.360630	9.907434	49.258338	35.290761	22.690989	5.017318	47.978107	33.870174	11.134011	-5.087944	63.245064	43.839346	2.686524	-8.594249	64.249255	44.213995
-0.805000	-3.995636	-4.876138	96.430707	-0.098865	-0.180950	-0.035762	85.599884	0.889471	-3.216844	15.113537	3.968918	-22.321644	-34.943647	38.410669	9.902970	49.260385	35.297737	22.739307	5.006687	47.995156	33.882152	11.159514	-5.094794	63.263520	43.865743	2.674580	-8.543867	64.352168	44.248894
-0.795000	-3.995636	-4.876138	96.430707	-0.098580	-0.180973	-0.035656	85.605836	0.910655	-3.205432	15.057579	3.989341	-22.341497	-34.968915	38.467398	9.895949	49.311030	35.329769	22.812246	4.997102	48.042440	33.909188	11.210526	-5.100413	63.299901	43.900661	2.688650	-8.498181	64.485378	44.286276
-0.785000	-3.995636	-4.876138	96.430707	-0.098320	-0.181042	-0.035560	85.605424	0.931423	-3.210604	15.011841	3.994182	-22.370859	-35.010288	38.519800	9.886317	49.426648	35.394878	22.908027	4.990338	48.125433	33.954405	11.297327	-5.107224	63.366117	43.947410	2.749622	-8.459209	64.638702	44.321703
-0.775000	-3.995636	-4.876138	96.430707	-0.098090	-0.181142	-0.035474	85.610626	0.955968	-3.237970	14.989163	3.984065	-22.414311	-35.076216	38.563810	9.873564	49.603878	35.492014	23.019241	4.986125	48.236539	34.015569	11.417427	-5.116636	63.465366	44.007692	2.863485	-8.424633	64.794099	44.350868
